<?xml version="1.0" encoding="UTF-8" standalone="no"?>
<svg
   xmlns:dc="http://purl.org/dc/elements/1.1/"
   xmlns:cc="http://creativecommons.org/ns#"
   xmlns:rdf="http://www.w3.org/1999/02/22-rdf-syntax-ns#"
   xmlns:svg="http://www.w3.org/2000/svg"
   xmlns="http://www.w3.org/2000/svg"
   viewBox="0 0 456.78668 491.51999"
   height="491.51999"
   width="456.78668"
   xml:space="preserve"
   id="svg2"
   version="1.1"><metadata
     id="metadata8"><rdf:RDF><cc:Work
         rdf:about=""><dc:format>image/svg+xml</dc:format><dc:type
           rdf:resource="http://purl.org/dc/dcmitype/StillImage" /></cc:Work></rdf:RDF></metadata><defs
     id="defs6" /><g
     transform="matrix(1.3333333,0,0,-1.3333333,0,491.52)"
     id="g10"><g
       transform="scale(0.1)"
       id="g12"><path
         id="path14"
         style="fill:#000000;fill-opacity:1;fill-rule:nonzero;stroke:none"
         d="m 3192.95,1598.18 c 0,-31.81 25.8,-57.61 57.6,-57.61 31.82,0 57.61,25.8 57.61,57.61 v 369.03 c 0,144.19 -19.6,288.78 -58.8,429.43 -38.33,137.59 -95.56,271.16 -171.66,396.67 -16.41,27.09 -51.67,35.75 -78.76,19.35 -27.08,-16.4 -35.75,-51.66 -19.35,-78.75 70.43,-116.12 123.45,-240.01 159.08,-367.87 36.19,-129.89 54.28,-264.17 54.28,-398.83 V 1598.18 Z M 446.34,2733.91 c 16.398,27.09 7.738,62.35 -19.348,78.75 -27.09,16.4 -62.355,7.74 -78.754,-19.35 C 272.129,2667.8 214.906,2534.23 176.57,2396.64 137.379,2255.99 117.777,2111.4 117.777,1967.21 v -369.03 c 0,-31.81 25.793,-57.61 57.606,-57.61 31.805,0 57.594,25.8 57.594,57.61 v 369.03 c 0,134.66 18.101,268.94 54.293,398.83 35.625,127.86 88.652,251.75 159.07,367.87" /><path
         id="path16"
         style="fill:#000000;fill-opacity:1;fill-rule:nonzero;stroke:none"
         d="m 2906.66,2827.91 c 10.64,-14.78 26.32,-23.86 43.05,-26.59 16.75,-2.73 34.51,0.91 49.29,11.54 l 0.01,0.01 c 14.78,10.63 23.86,26.31 26.58,43.04 2.73,16.75 -0.91,34.5 -11.54,49.28 v 0.01 c -12.88,17.81 -26.01,35.26 -39.37,52.3 -12.55,16.02 -25.97,32.41 -40.23,49.14 -14.33,16.8 -29,33.4 -44.04,49.75 -13.28,14.45 -27.7,29.45 -43.26,45 -153.87,153.88 -330.82,269.86 -519.38,347.97 -196.09,81.22 -405.32,121.84 -614.8,121.84 -209.49,0 -418.72,-40.62 -614.81,-121.84 -188.566,-78.11 -365.508,-194.09 -519.383,-347.97 -15.55,-15.55 -29.964,-30.55 -43.25,-45 -15.035,-16.35 -29.718,-32.95 -44.039,-49.75 -14.265,-16.73 -27.679,-33.12 -40.234,-49.14 -13.363,-17.04 -26.488,-34.49 -39.363,-52.3 l -0.012,-0.01 c -10.629,-14.78 -14.262,-32.53 -11.531,-49.28 2.722,-16.73 11.804,-32.41 26.582,-43.04 l 0.008,-0.01 c 14.773,-10.63 32.531,-14.27 49.281,-11.54 16.734,2.73 32.414,11.81 43.047,26.59 12.457,17.23 24.093,32.73 34.882,46.43 11.309,14.35 23.965,29.75 37.977,46.19 12.168,14.27 24.922,28.6 38.246,42.96 14.848,15.99 28.961,30.67 42.301,44.01 140.648,140.65 303.133,246.98 476.838,318.93 180.22,74.64 371.97,111.97 563.46,111.97 191.48,0 383.23,-37.33 563.45,-111.97 173.71,-71.95 336.19,-178.28 476.85,-318.93 13.34,-13.34 27.45,-28.02 42.29,-44.01 13.33,-14.36 26.08,-28.69 38.25,-42.96 14.01,-16.44 26.66,-31.84 37.97,-46.19 10.79,-13.7 22.43,-29.2 34.88,-46.43 z m 24.61,-139.99 c -45.67,7.44 -88.54,32.35 -117.76,72.94 -8.86,12.26 -19.59,26.39 -32.18,42.38 -11.93,15.15 -23.55,29.36 -34.82,42.59 -10.75,12.61 -22.45,25.74 -35.1,39.36 -10.93,11.77 -24.12,25.38 -39.6,40.86 -130.11,130.12 -279.68,228.17 -439.04,294.17 -165.73,68.65 -342.64,102.98 -519.8,102.98 -177.17,0 -354.07,-34.33 -519.81,-102.98 -159.35,-66 -308.922,-164.05 -439.039,-294.17 -15.473,-15.48 -28.672,-29.09 -39.601,-40.86 -12.641,-13.62 -24.344,-26.75 -35.09,-39.36 -11.278,-13.23 -22.891,-27.44 -34.832,-42.59 -12.586,-15.99 -23.313,-30.12 -32.18,-42.38 -29.215,-40.59 -72.082,-65.5 -117.75,-72.94 -45.656,-7.44 -94.195,2.57 -134.789,31.79 l -0.008,0.01 c -40.59,29.22 -65.484,72.07 -72.93,117.74 -7.433,45.65 2.575,94.19 31.789,134.79 h 0.008 c 13.801,19.1 27.832,37.75 42.067,55.91 14.875,18.97 29.34,36.71 43.383,53.18 16.003,18.78 31.593,36.43 46.734,52.89 16.683,18.15 32.168,34.38 46.406,48.62 164.41,164.41 354.27,288.66 557.192,372.71 210.56,87.23 434.64,130.84 658.45,130.84 223.8,0 447.89,-43.61 658.44,-130.84 202.93,-84.05 392.79,-208.3 557.2,-372.71 14.24,-14.24 29.71,-30.47 46.41,-48.62 15.13,-16.46 30.73,-34.11 46.72,-52.89 14.05,-16.47 28.52,-34.21 43.39,-53.18 14.23,-18.16 28.26,-36.81 42.06,-55.91 h 0.01 c 29.22,-40.6 39.23,-89.13 31.79,-134.79 -7.44,-45.67 -32.35,-88.52 -72.93,-117.74 l -0.01,-0.01 c -40.59,-29.22 -89.13,-39.23 -134.78,-31.79 z m 134.79,31.8 v 0 z m -2706.181,0 h -0.008 0.008" /><path
         id="path18"
         style="fill:#000000;fill-opacity:1;fill-rule:nonzero;stroke:none"
         d="m 3250.62,1540.57 h -0.01 c -16.43,0 -31.41,-6.76 -42.29,-17.65 -10.9,-10.89 -17.67,-25.87 -17.67,-42.3 v -129.24 c 0,-16.43 6.77,-31.41 17.67,-42.31 10.88,-10.89 25.86,-17.65 42.29,-17.65 h 0.01 c 16.47,0 31.49,6.78 42.41,17.7 10.92,10.92 17.7,25.94 17.7,42.42 v 128.92 c 0,16.47 -6.78,31.49 -17.7,42.41 -10.92,10.93 -25.94,17.7 -42.41,17.7 z m -0.01,115.21 h 0.01 c 48.27,0 92.12,-19.71 123.86,-51.46 31.75,-31.74 51.45,-75.59 51.45,-123.86 v -128.92 c 0,-48.28 -19.7,-92.13 -51.45,-123.87 -31.74,-31.74 -75.59,-51.46 -123.86,-51.46 h -0.01 c -48.22,0 -92.03,19.7 -123.75,51.41 -31.72,31.72 -51.41,75.52 -51.41,123.76 v 129.24 c 0,48.23 19.69,92.04 51.41,123.76 31.72,31.71 75.53,51.4 123.75,51.4" /><path
         id="path20"
         style="fill:#000000;fill-opacity:1;fill-rule:nonzero;stroke:none"
         d="m 2968.71,1938.99 c 61.1,0 116.6,-24.94 156.8,-65.14 40.2,-40.2 65.15,-95.69 65.15,-156.79 v -602.14 c 0,-61.08 -24.95,-116.58 -65.15,-156.775 -40.2,-40.196 -95.7,-65.145 -156.8,-65.145 -61.14,0 -116.69,24.98 -156.94,65.203 -40.23,40.235 -65.21,95.787 -65.21,156.947 v 601.69 c 0,61.15 24.98,116.71 65.21,156.95 40.24,40.23 95.79,65.2 156.94,65.2 z m 75.35,-146.6 c -19.38,19.38 -46.05,31.41 -75.35,31.41 -29.34,0 -56.07,-12.05 -75.48,-31.46 -19.42,-19.42 -31.47,-46.15 -31.47,-75.5 v -601.69 c 0,-29.35 12.05,-56.08 31.47,-75.49 19.41,-19.42 46.14,-31.46 75.48,-31.46 29.3,0 55.97,12.03 75.35,31.39 19.37,19.37 31.39,46.05 31.39,75.33 v 602.14 c 0,29.29 -12.02,55.97 -31.39,75.33" /><path
         id="path22"
         style="fill:#000000;fill-opacity:1;fill-rule:nonzero;stroke:none"
         d="m 175.316,1655.78 h 0.004 c 48.231,0 92.032,-19.69 123.75,-51.4 31.715,-31.72 51.407,-75.53 51.407,-123.76 v -129.24 c 0,-48.24 -19.684,-92.04 -51.407,-123.76 -31.711,-31.71 -75.519,-51.41 -123.75,-51.41 h -0.004 c -48.269,0 -92.1168,19.72 -123.8629,51.46 C 19.7109,1259.41 0,1303.26 0,1351.54 v 128.92 c 0,48.27 19.7109,92.12 51.4531,123.86 31.7461,31.75 75.5939,51.46 123.8629,51.46 z m 0.004,-115.21 h -0.004 c -16.468,0 -31.488,-6.77 -42.41,-17.7 -10.918,-10.92 -17.707,-25.94 -17.707,-42.41 v -128.92 c 0,-16.48 6.789,-31.5 17.707,-42.42 10.922,-10.92 25.942,-17.7 42.41,-17.7 h 0.004 c 16.426,0 31.407,6.76 42.301,17.65 10.895,10.9 17.656,25.88 17.656,42.31 v 129.24 c 0,16.43 -6.761,31.41 -17.656,42.3 -10.894,10.89 -25.867,17.65 -42.301,17.65" /><path
         id="path24"
         style="fill:#000000;fill-opacity:1;fill-rule:nonzero;stroke:none"
         d="m 457.219,1823.8 c -29.293,0 -55.969,-12.03 -75.344,-31.41 -19.371,-19.36 -31.398,-46.04 -31.398,-75.33 v -602.14 c 0,-29.28 12.027,-55.96 31.398,-75.33 19.375,-19.36 46.051,-31.39 75.344,-31.39 29.347,0 56.078,12.04 75.492,31.46 19.406,19.41 31.465,46.14 31.465,75.49 v 601.69 c 0,29.35 -12.059,56.08 -31.465,75.5 -19.414,19.41 -46.145,31.46 -75.492,31.46 z m -156.793,50.05 c 40.199,40.2 95.695,65.14 156.793,65.14 61.148,0 116.707,-24.97 156.941,-65.2 40.235,-40.24 65.215,-95.8 65.215,-156.95 v -601.69 c 0,-61.16 -24.98,-116.712 -65.215,-156.947 C 573.922,917.98 518.363,893 457.219,893 c -61.09,0 -116.598,24.949 -156.793,65.145 -40.196,40.195 -65.149,95.695 -65.149,156.775 v 602.14 c 0,61.1 24.953,116.59 65.149,156.79" /><path
         id="path26"
         style="fill:#000000;fill-opacity:1;fill-rule:nonzero;stroke:none"
         d="M 3316.74,1206.7 C 3230.82,893.957 3049.18,626.555 2808.01,433.457 2566.84,240.371 2266.23,121.621 1942.41,106.199 l -5.4,114.758 c 299.26,14.246 576.87,123.859 799.45,302.063 222.58,178.21 390.25,425.066 469.58,713.83 l 110.7,-30.15" /><path
         id="path28"
         style="fill:#000000;fill-opacity:1;fill-rule:nonzero;stroke:none"
         d="m 1881.12,0 h -218.39 c -31.75,0 -60.74,13.0469 -81.89,34.082 l -0.1,0.1172 -0.11,0.1094 c -21.04,21.1406 -34.09,50.125 -34.09,81.8824 v 94.778 c 0,32.011 13.05,61.074 34.09,82.105 21.02,21.028 50.09,34.086 82.1,34.086 h 218.39 c 32,0 61.07,-13.058 82.1,-34.086 21.03,-21.031 34.09,-50.094 34.09,-82.105 v -94.778 c 0,-31.7574 -13.05,-60.7418 -34.09,-81.8824 l -0.11,-0.1094 -0.12,-0.1172 C 1941.86,13.0469 1912.88,0 1881.12,0 Z m -218.39,115.195 h 218.39 c 0.36,0 0.58,0.047 0.65,0.118 l 0.23,0.222 c 0.07,0.07 0.11,0.293 0.11,0.656 v 94.778 c 0,0.215 -0.13,0.457 -0.34,0.652 -0.2,0.203 -0.45,0.344 -0.65,0.344 h -218.39 c -0.21,0 -0.45,-0.141 -0.66,-0.344 -0.2,-0.195 -0.33,-0.437 -0.33,-0.652 v -94.778 c 0,-0.363 0.04,-0.586 0.11,-0.656 l 0.22,-0.222 c 0.07,-0.071 0.31,-0.118 0.66,-0.118" /></g></g></svg>