<?xml version="1.0" encoding="UTF-8"?>
<svg width="700pt" height="700pt" version="1.1" viewBox="0 0 700 700" xmlns="http://www.w3.org/2000/svg" xmlns:xlink="http://www.w3.org/1999/xlink">
 <defs>
  <symbol id="t" overflow="visible">
   <path d="m0.1875-0.015625c-0.011719 0.011719-0.023438 0.015625-0.03125 0.015625h-0.03125c-0.03125 0-0.058594-0.0039062-0.078125-0.015625-0.023438-0.019531-0.03125-0.046875-0.03125-0.078125 0-0.039062 0.0078125-0.066406 0.03125-0.078125 0.019531-0.019531 0.046875-0.03125 0.078125-0.03125h0.03125c0.007812 0 0.019531 0.007813 0.03125 0.015625v0.03125h-0.03125c-0.011719-0.007812-0.023438-0.015625-0.03125-0.015625-0.023438 0-0.039062 0.007813-0.046875 0.015625-0.011719 0.011719-0.015625 0.03125-0.015625 0.0625 0 0.023438 0.0039062 0.039062 0.015625 0.046875 0.0078125 0.011719 0.023437 0.015625 0.046875 0.015625h0.03125c0.007812-0.0078125 0.019531-0.015625 0.03125-0.015625z"/>
  </symbol>
  <symbol id="c" overflow="visible">
   <path d="m0.14062-0.10938h-0.015625c0-0.007813-0.007812-0.015625-0.015625-0.015625-0.011719 0-0.023438 0.007812-0.03125 0.015625v0.046875 0.0625h-0.0625v-0.15625h0.0625v0.03125c0-0.007812 0.0039062-0.015625 0.015625-0.015625 0.007812-0.007813 0.019531-0.015625 0.03125-0.015625h0.015625z"/>
  </symbol>
  <symbol id="a" overflow="visible">
   <path d="m0.17188-0.078125v0.015625h-0.10938v0.03125h0.046875 0.03125c0.007813-0.0078125 0.019531-0.015625 0.03125-0.015625v0.03125c-0.011719 0.011719-0.023437 0.015625-0.03125 0.015625h-0.046875c-0.023438 0-0.042969-0.0039062-0.0625-0.015625-0.011719-0.019531-0.015625-0.039062-0.015625-0.0625 0-0.019531 0.0039062-0.035156 0.015625-0.046875 0.019531-0.019531 0.039062-0.03125 0.0625-0.03125 0.019531 0 0.035156 0.011719 0.046875 0.03125 0.019531 0.011719 0.03125 0.027344 0.03125 0.046875zm-0.046875-0.015625c0-0.007812-0.007812-0.015625-0.015625-0.015625 0-0.007813-0.007813-0.015625-0.015625-0.015625-0.011719 0-0.023438 0.007812-0.03125 0.015625v0.015625z"/>
  </symbol>
  <symbol id="f" overflow="visible">
   <path d="m0.09375-0.0625h-0.03125v0.015625 0.015625h0.015625 0.03125c0.007813-0.0078125 0.015625-0.019531 0.015625-0.03125zm0.078125-0.03125v0.09375h-0.046875v-0.015625c-0.011719 0-0.023438 0.0078125-0.03125 0.015625h-0.03125-0.03125c-0.011719-0.0078125-0.015625-0.023438-0.015625-0.046875 0-0.019531 0.0039062-0.03125 0.015625-0.03125 0.0078125-0.0078125 0.03125-0.015625 0.0625-0.015625h0.03125c0-0.007812-0.007812-0.015625-0.015625-0.015625-0.011719-0.007813-0.023438-0.015625-0.03125-0.015625h-0.03125c-0.011719 0-0.015625 0.007812-0.015625 0.015625v-0.046875h0.03125 0.03125c0.019531 0 0.035156 0.007812 0.046875 0.015625 0.019531 0.011719 0.03125 0.027344 0.03125 0.046875z"/>
  </symbol>
  <symbol id="e" overflow="visible">
   <path d="m0.078125-0.20312v0.046875h0.046875v0.03125h-0.046875v0.078125 0.015625h0.015625 0.03125v0.03125h-0.046875c-0.023438 0-0.039062-0.0039062-0.046875-0.015625v-0.03125-0.078125h-0.03125v-0.03125h0.03125v-0.046875z"/>
  </symbol>
  <symbol id="k" overflow="visible">
   <path d="m0.125-0.125v-0.09375h0.046875v0.21875h-0.046875v-0.015625s-0.007812 0.0078125-0.015625 0.015625h-0.03125c-0.023438 0-0.039062-0.0039062-0.046875-0.015625-0.011719-0.019531-0.015625-0.039062-0.015625-0.0625 0-0.019531 0.0039062-0.035156 0.015625-0.046875 0.0078125-0.019531 0.023438-0.03125 0.046875-0.03125 0.0078125 0 0.019531 0.007812 0.03125 0.015625 0.007813 0 0.015625 0.007813 0.015625 0.015625zm-0.03125 0.09375h0.015625c0.007813-0.0078125 0.015625-0.023438 0.015625-0.046875 0-0.0078125-0.007812-0.019531-0.015625-0.03125 0-0.007813-0.007813-0.015625-0.015625-0.015625-0.011719 0-0.023438 0.007812-0.03125 0.015625v0.03125 0.046875h0.03125z"/>
  </symbol>
  <symbol id="j" overflow="visible">
   <path d="m0.10938-0.03125h0.015625c0.007812-0.0078125 0.015625-0.023438 0.015625-0.046875 0-0.0078125-0.007813-0.019531-0.015625-0.03125 0-0.007813-0.007812-0.015625-0.015625-0.015625-0.011719 0-0.023438 0.007812-0.03125 0.015625v0.03125 0.03125c0.0078125 0.011719 0.019531 0.015625 0.03125 0.015625zm-0.03125-0.09375c0-0.007812 0.0039062-0.015625 0.015625-0.015625 0.007812-0.007813 0.019531-0.015625 0.03125-0.015625 0.019531 0 0.035156 0.011719 0.046875 0.03125 0.007813 0.011719 0.015625 0.027344 0.015625 0.046875 0 0.023438-0.007812 0.042969-0.015625 0.0625-0.011719 0.011719-0.027344 0.015625-0.046875 0.015625h-0.03125c-0.011719-0.0078125-0.015625-0.015625-0.015625-0.015625v0.015625h-0.0625v-0.21875h0.0625z"/>
  </symbol>
  <symbol id="i" overflow="visible">
   <path d="m0-0.15625h0.046875l0.046875 0.10938 0.03125-0.10938h0.046875l-0.0625 0.17188c0 0.019531-0.007813 0.03125-0.015625 0.03125-0.011719 0.0078125-0.023438 0.015625-0.03125 0.015625h-0.03125v-0.03125h0.015625c0.0078125 0 0.015625-0.0078125 0.015625-0.015625v-0.015625z"/>
  </symbol>
  <symbol id="b" overflow="visible">
   <path d="m0.17188-0.09375v0.09375h-0.046875v-0.0625-0.03125-0.015625h-0.015625v-0.015625c-0.011719 0-0.023438 0.007812-0.03125 0.015625v0.03125 0.078125h-0.0625v-0.15625h0.0625v0.03125c0-0.007812 0.0039062-0.015625 0.015625-0.015625 0.007812-0.007813 0.019531-0.015625 0.03125-0.015625 0.019531 0 0.03125 0.007812 0.03125 0.015625 0.007812 0.011719 0.015625 0.027344 0.015625 0.046875z"/>
  </symbol>
  <symbol id="s" overflow="visible">
   <path d="m0.14062-0.15625v0.046875c-0.011719-0.007813-0.023437-0.015625-0.03125-0.015625h-0.03125-0.015625v0.015625 0.015625h0.015625 0.015625c0.019531 0 0.035156 0.0078125 0.046875 0.015625 0.007813 0.011719 0.015625 0.023438 0.015625 0.03125 0 0.023438-0.007812 0.039062-0.015625 0.046875h-0.0625-0.03125-0.03125v-0.046875c0.0078125 0.011719 0.019531 0.015625 0.03125 0.015625h0.03125 0.015625c0.007812 0 0.015625-0.0039062 0.015625-0.015625h-0.015625c0-0.0078125-0.0078125-0.015625-0.015625-0.015625-0.023438 0-0.039062-0.0039062-0.046875-0.015625-0.011719-0.0078125-0.015625-0.019531-0.015625-0.03125 0-0.007813 0.0039062-0.019531 0.015625-0.03125 0.0078125-0.007813 0.023438-0.015625 0.046875-0.015625h0.03125 0.03125z"/>
  </symbol>
  <symbol id="h" overflow="visible">
   <path d="m0.15625-0.15625v0.046875h-0.03125c0-0.007813-0.007812-0.015625-0.015625-0.015625-0.011719 0-0.023438 0.007812-0.03125 0.015625-0.011719 0.011719-0.015625 0.023438-0.015625 0.03125 0 0.011719 0.0039062 0.023438 0.015625 0.03125 0.0078125 0.011719 0.019531 0.015625 0.03125 0.015625h0.015625c0.007812-0.0078125 0.019531-0.015625 0.03125-0.015625v0.046875h-0.03125-0.03125c-0.023438 0-0.042969-0.0039062-0.0625-0.015625-0.011719-0.019531-0.015625-0.039062-0.015625-0.0625 0-0.019531 0.0039062-0.035156 0.015625-0.046875 0.019531-0.019531 0.039062-0.03125 0.0625-0.03125h0.03125 0.03125z"/>
  </symbol>
  <symbol id="g" overflow="visible">
   <path d="m0.015625-0.0625v-0.09375h0.046875v0.015625 0.03125 0.03125 0.03125h0.015625v0.015625h0.015625c0.007812 0 0.015625-0.0039062 0.015625-0.015625 0.007813-0.0078125 0.015625-0.019531 0.015625-0.03125v-0.078125h0.046875v0.15625h-0.046875v-0.015625c-0.011719 0-0.023438 0.0078125-0.03125 0.015625h-0.015625c-0.023438 0-0.039062-0.0039062-0.046875-0.015625-0.011719-0.0078125-0.015625-0.023438-0.015625-0.046875z"/>
  </symbol>
  <symbol id="r" overflow="visible">
   <path d="m0.015625-0.15625h0.0625v0.15625h-0.0625zm0-0.0625h0.0625v0.046875h-0.0625z"/>
  </symbol>
  <symbol id="d" overflow="visible">
   <path d="m0.09375-0.125c-0.011719 0-0.023438 0.007812-0.03125 0.015625v0.03125 0.046875h0.03125 0.015625c0.007813-0.0078125 0.015625-0.023438 0.015625-0.046875 0-0.0078125-0.007812-0.019531-0.015625-0.03125 0-0.007813-0.007813-0.015625-0.015625-0.015625zm0-0.03125c0.03125 0 0.050781 0.011719 0.0625 0.03125 0.007812 0.011719 0.015625 0.027344 0.015625 0.046875 0 0.023438-0.007813 0.042969-0.015625 0.0625-0.011719 0.011719-0.03125 0.015625-0.0625 0.015625-0.023438 0-0.042969-0.0039062-0.0625-0.015625-0.011719-0.019531-0.015625-0.039062-0.015625-0.0625 0-0.019531 0.0039062-0.035156 0.015625-0.046875 0.019531-0.019531 0.039062-0.03125 0.0625-0.03125z"/>
  </symbol>
  <symbol id="q" overflow="visible">
   <path d="m0.125-0.21875v0.046875h-0.03125-0.015625v0.015625h0.046875v0.03125h-0.046875v0.125h-0.046875v-0.125h-0.03125v-0.03125h0.03125c0-0.019531 0.0039062-0.035156 0.015625-0.046875 0.0078125-0.007813 0.023438-0.015625 0.046875-0.015625z"/>
  </symbol>
  <symbol id="p" overflow="visible">
   <path d="m0.17188-0.125c0-0.007812 0.003906-0.015625 0.015625-0.015625 0.007812-0.007813 0.019531-0.015625 0.03125-0.015625 0.007812 0 0.019531 0.007812 0.03125 0.015625 0.007812 0.011719 0.015625 0.027344 0.015625 0.046875v0.09375h-0.046875v-0.078125-0.015625c0-0.007812-0.007812-0.015625-0.015625-0.015625v-0.015625c-0.011719 0-0.023437 0.007812-0.03125 0.015625v0.03125 0.078125h-0.046875v-0.078125c0-0.019531-0.007812-0.03125-0.015625-0.03125 0-0.007813-0.007813-0.015625-0.015625-0.015625 0 0-0.0078125 0.007812-0.015625 0.015625v0.03125 0.078125h-0.0625v-0.15625h0.0625v0.03125c0-0.007812 0.0039062-0.015625 0.015625-0.015625 0.007812-0.007813 0.019531-0.015625 0.03125-0.015625 0.007812 0 0.015625 0.007812 0.015625 0.015625 0.007813 0 0.019531 0.007813 0.03125 0.015625z"/>
  </symbol>
  <symbol id="o" overflow="visible">
   <path d="m0.17188-0.09375v0.09375h-0.046875v-0.0625-0.03125-0.015625h-0.015625v-0.015625c-0.011719 0-0.023438 0.007812-0.03125 0.015625v0.03125 0.078125h-0.0625v-0.21875h0.0625v0.09375c0-0.007812 0.0039062-0.015625 0.015625-0.015625 0.007812-0.007813 0.019531-0.015625 0.03125-0.015625 0.019531 0 0.03125 0.007812 0.03125 0.015625 0.007812 0.011719 0.015625 0.027344 0.015625 0.046875z"/>
  </symbol>
  <symbol id="n" overflow="visible">
   <path d="m0.03125-0.20312h0.046875l0.078125 0.14062v-0.14062h0.046875v0.20312h-0.046875l-0.078125-0.14062v0.14062h-0.046875z"/>
  </symbol>
  <symbol id="m" overflow="visible">
   <path d="m0.03125-0.20312h0.078125c0.03125 0 0.050781 0.007813 0.0625 0.015625 0.007813 0.011719 0.015625 0.027344 0.015625 0.046875 0 0.023437-0.007812 0.042969-0.015625 0.0625-0.011719 0.011719-0.03125 0.015625-0.0625 0.015625h-0.03125v0.0625h-0.046875zm0.046875 0.03125v0.0625h0.03125 0.015625c0.007812-0.007813 0.015625-0.019531 0.015625-0.03125 0-0.007813-0.007813-0.015625-0.015625-0.015625 0-0.007812-0.007812-0.015625-0.015625-0.015625z"/>
  </symbol>
  <symbol id="l" overflow="visible">
   <path d="m0.015625-0.15625h0.0625v0.15625c0 0.019531-0.0078125 0.035156-0.015625 0.046875-0.011719 0.0078125-0.027344 0.015625-0.046875 0.015625h-0.03125v-0.03125h0.015625c0.0078125 0 0.015625-0.0078125 0.015625-0.015625v-0.015625zm0-0.0625h0.0625v0.046875h-0.0625z"/>
  </symbol>
 </defs>
 <g>
  <path d="m384.38 241.19c5.543 8.2305-7 16.574-12.488 8.3438-34.777-51.969-69.328-104.05-104.66-155.68-6.6094-9.6875-17.695-11.367-27.105-5.0391-9.2969 6.2734-11.871 17.137-5.4336 26.77l104.38 155.96c5.4883 8.1758-7 16.574-12.488 8.3438l-83.719-125.11c-6.7188-9.6875-17.922-11.984-27.551-5.543-9.3516 6.2148-11.762 16.969-5.3203 26.543l84.168 125.78c5.4883 8.2305-7 16.574-12.488 8.3438l-61.207-91.449c-6.4414-9.2383-17.246-9.7422-25.762-3.8633-8.2891 5.7695-11.09 15.344-4.7031 23.969 36.23 54.152 85.23 139.44 124.04 186.82 18.031 27.047 82.602 64.176 112.79 44.184l51.969-34.832c34.945-23.406 37.07-71.961 33.656-109.82l-19.938-175.22c-1.2305-10.754-7.6172-20.609-19.098-19.938-8.8477 0.50391-15.062 7.168-14.84 16.184l2.0703 114.63c0.11328 7.3906-9.5742 10.527-13.719 4.3125l-112.28-168.39c-6.5508-9.7422-17.527-11.312-26.938-5.0391-9.4062 6.2148-12.039 17.137-5.6016 26.824l82.266 122.92zm-98.336-146.38c2.8008-6.4961 7.4492-11.871 13.328-15.848 16.238-10.977 36.512-7.5586 47.711 9.1836l98.113 147.11-1.625-88.984c-0.33594-17.246 12.098-30.574 29.008-31.527 19.434-1.1211 32.703 14.281 34.832 33.266l19.992 175.56c3.9219 43.902-0.054688 96.77-40.207 123.65l-52.023 34.777c-38.078 25.199-110.88-14.281-133.62-48.273l-123.7-186.31c-11.535-15.734-7-34.551 8.3984-45.191 5.543-3.8086 12.207-6.2148 18.984-6.4961l-7.7266-11.594c-11.199-16.742-6.8867-36.512 9.5195-47.375 5.7695-3.8633 12.711-6.1055 19.656-6.1602l-4.4805-6.6641c-11.199-16.742-6.6641-36.625 9.5742-47.543 16.352-10.977 36.398-7.6719 47.824 9.0156z"/>
  <use x="70" y="560.839844" xlink:href="#t"/>
  <use x="70.207031" y="560.839844" xlink:href="#c"/>
  <use x="70.34375" y="560.839844" xlink:href="#a"/>
  <use x="70.535156" y="560.839844" xlink:href="#f"/>
  <use x="70.722656" y="560.839844" xlink:href="#e"/>
  <use x="70.855469" y="560.839844" xlink:href="#a"/>
  <use x="71.046875" y="560.839844" xlink:href="#k"/>
  <use x="71.34375" y="560.839844" xlink:href="#j"/>
  <use x="71.542969" y="560.839844" xlink:href="#i"/>
  <use x="71.824219" y="560.839844" xlink:href="#f"/>
  <use x="72.011719" y="560.839844" xlink:href="#b"/>
  <use x="72.210938" y="560.839844" xlink:href="#b"/>
  <use x="72.414062" y="560.839844" xlink:href="#a"/>
  <use x="72.601562" y="560.839844" xlink:href="#s"/>
  <use x="72.867188" y="560.839844" xlink:href="#h"/>
  <use x="73.03125" y="560.839844" xlink:href="#g"/>
  <use x="73.230469" y="560.839844" xlink:href="#c"/>
  <use x="73.371094" y="560.839844" xlink:href="#b"/>
  <use x="73.570312" y="560.839844" xlink:href="#r"/>
  <use x="73.664062" y="560.839844" xlink:href="#d"/>
  <use x="70" y="561.121094" xlink:href="#q"/>
  <use x="70.121094" y="561.121094" xlink:href="#c"/>
  <use x="70.261719" y="561.121094" xlink:href="#d"/>
  <use x="70.453125" y="561.121094" xlink:href="#p"/>
  <use x="70.839844" y="561.121094" xlink:href="#e"/>
  <use x="70.976562" y="561.121094" xlink:href="#o"/>
  <use x="71.175781" y="561.121094" xlink:href="#a"/>
  <use x="71.460938" y="561.121094" xlink:href="#n"/>
  <use x="71.695312" y="561.121094" xlink:href="#d"/>
  <use x="71.890625" y="561.121094" xlink:href="#g"/>
  <use x="72.089844" y="561.121094" xlink:href="#b"/>
  <use x="72.386719" y="561.121094" xlink:href="#m"/>
  <use x="72.589844" y="561.121094" xlink:href="#c"/>
  <use x="72.726562" y="561.121094" xlink:href="#d"/>
  <use x="72.921875" y="561.121094" xlink:href="#l"/>
  <use x="73.015625" y="561.121094" xlink:href="#a"/>
  <use x="73.207031" y="561.121094" xlink:href="#h"/>
  <use x="73.371094" y="561.121094" xlink:href="#e"/>
 </g>
</svg>
